<svg width="83" height="83" viewBox="0 0 83 83" fill="none" xmlns="http://www.w3.org/2000/svg">
<circle cx="41.5" cy="41.5" r="41.5" fill="white"/>
<path d="M76.5883 57.8676V24C76.5883 22.8954 75.6928 22 74.5883 22H64.9853C63.8807 22 62.9853 22.8954 62.9853 24V28.6819C62.9853 29.7864 63.8807 30.6819 64.9853 30.6819H67.4191C68.5237 30.6819 69.4191 31.5773 69.4191 32.6819V40.6567V49.9247C69.4191 51.0292 68.5237 51.9247 67.4191 51.9247H64.9853C63.8807 51.9247 62.9853 52.8201 62.9853 53.9247V57.8676C62.9853 58.9722 63.8807 59.8676 64.9853 59.8676H74.5883C75.6928 59.8676 76.5883 58.9722 76.5883 57.8676Z" fill="#5F5F5F"/>
<path d="M44.8925 22.3742C43.7561 22.1044 42.7646 22.9999 42.7646 24.168V27.7957C42.7646 28.8097 43.524 29.6739 44.4925 29.9743C47.209 30.8168 52.1728 33.3108 52.1728 40.2882C52.1728 47.7444 47.1059 50.5246 44.409 51.4763C43.4804 51.804 42.7646 52.6517 42.7646 53.6365V57.5263C42.7646 58.7555 43.8535 59.6642 45.0251 59.2922C49.5025 57.8703 59.0599 53.3082 58.94 40.2882C58.8192 27.1756 49.2557 23.4103 44.8925 22.3742Z" fill="#353535"/>
<path d="M29.9262 59.5H29.2206C27.5637 59.5 26.2206 58.1569 26.2206 56.5V35.9233V25C26.2206 23.3432 27.5637 22 29.2206 22L54.543 22C56.8384 22 58.2834 24.4727 57.1568 26.4725L55.6697 29.1122C55.138 30.0559 54.139 30.6397 53.0559 30.6397L35.7061 30.6397C34.2693 30.6397 33.0343 31.6584 32.7609 33.0689L31.7353 38.3603H36.0969C36.9479 38.3603 37.7587 37.9989 38.3277 37.3662L38.3762 37.3123C38.9451 36.6796 39.756 36.3182 40.6069 36.3182H40.8121C43.2471 36.3182 44.6677 39.0661 43.2598 41.0528L42.0031 42.8262C41.4406 43.6199 40.5282 44.0916 39.5554 44.0916H35.0408C33.2693 44.0916 31.8836 45.6184 32.0548 47.3816L32.9122 56.21C33.0834 57.9732 31.6977 59.5 29.9262 59.5Z" fill="#FED766"/>
<path d="M26.2206 57.6838V24C26.2206 22.8954 27.116 22 28.2206 22H39.8235V30.6397H35.3897C34.2851 30.6397 33.3897 31.5351 33.3897 32.6397V40.5662V49.7794C33.3897 50.884 34.2851 51.7794 35.3897 51.7794H37.8235C38.9281 51.7794 39.8235 52.6748 39.8235 53.7794V57.6838C39.8235 58.7884 38.9281 59.6838 37.8235 59.6838H28.2206C27.116 59.6838 26.2206 58.7884 26.2206 57.6838Z" fill="#353535"/>
<path d="M6 57.6838V24C6 22.8954 6.89543 22 8 22H17.6029C18.7075 22 19.6029 22.8954 19.6029 24V28.6397C19.6029 29.7443 18.7075 30.6397 17.6029 30.6397H15.1691C14.0645 30.6397 13.1691 31.5351 13.1691 32.6397V40.5662V49.7794C13.1691 50.884 14.0645 51.7794 15.1691 51.7794H17.6029C18.7075 51.7794 19.6029 52.6748 19.6029 53.7794V57.6838C19.6029 58.7884 18.7075 59.6838 17.6029 59.6838H8C6.89543 59.6838 6 58.7884 6 57.6838Z" fill="#5F5F5F"/>
</svg>
